<?xml version="1.0" ?><svg viewBox="0 0 64 64" xmlns="http://www.w3.org/2000/svg"><defs><style>.a{fill:#e5e4e4;stroke:#818180;}.a,.b,.d{stroke-linecap:round;stroke-width:2px;}.a,.b{stroke-linejoin:round;}.b{fill:#3fa6ff;stroke:#2689db;}.c{fill:#1c1c1c;}.d{fill:none;stroke:#1c1c1c;stroke-miterlimit:10;}</style></defs><title/><path class="a" d="M49,31H45.88a18,18,0,1,0-35.7.41A10,10,0,0,0,13,51H49a10,10,0,0,0,0-20Z"/><path class="b" d="M18,52c0,3-3.24,5-6,5s-6-1-6-5c0-2.76,4-6,6-9C14,46,18,49.24,18,52Z"/><path class="b" d="M19.29,37.14c0,2.14-2.31,3.57-4.29,3.57s-4.29-.71-4.29-3.57c0-2,2.86-4.29,4.29-6.43C16.43,32.86,19.29,35.17,19.29,37.14Z"/><path class="b" d="M46.29,36.14c0,2.14-2.31,3.57-4.29,3.57s-4.29-.71-4.29-3.57c0-2,2.86-4.29,4.29-6.43C43.43,31.86,46.29,34.17,46.29,36.14Z"/><path class="b" d="M54,52c0,3-3.24,5-6,5s-6-1-6-5c0-2.76,4-6,6-9C50,46,54,49.24,54,52Z"/><path class="c" d="M36,43.4h0A6.4,6.4,0,0,0,29.6,37H28.4A6.4,6.4,0,0,0,22,43.4h0C26.5,40.47,31.16,40.46,36,43.4Z"/><path class="d" d="M24,27a4.49,4.49,0,0,0-4-1,4.52,4.52,0,0,0-3,3"/><path class="d" d="M21,21a7,7,0,0,1-3,4,6.92,6.92,0,0,1-4,1"/><path class="d" d="M31.58,27a4.24,4.24,0,0,1,7,2"/><path class="d" d="M34.58,21a7,7,0,0,0,3,4,6.92,6.92,0,0,0,4,1"/></svg>