<?xml version="1.0" ?><svg viewBox="0 0 64 64" xmlns="http://www.w3.org/2000/svg"><defs><style>.a{fill:#e5e4e4;stroke:#818180;}.a,.b,.d{stroke-linecap:round;stroke-linejoin:round;stroke-width:2px;}.b{fill:#ffed09;stroke:#d38509;}.c{fill:#1c1c1c;}.d{fill:none;stroke:#1c1c1c;}</style></defs><title/><path class="a" d="M50,26H46.88a18,18,0,1,0-35.7.41A10,10,0,0,0,14,46H50a10,10,0,0,0,0-20Z"/><polygon class="b" points="48 33 42 48 47 48 47 58 55 44 48.17 43.83 48 33"/><polygon class="b" points="14 35 8 50 13 50 13 60 21 46 14.17 45.83 14 35"/><circle class="c" cx="20" cy="24" r="2"/><circle class="c" cx="36" cy="24" r="2"/><path class="c" d="M36,30.8h0a6.4,6.4,0,0,1-6.4,6.4H28.4A6.4,6.4,0,0,1,22,30.8H36Z"/><line class="d" x1="33" x2="39" y1="24" y2="20"/><line class="d" x1="23.58" x2="17.58" y1="24" y2="20"/></svg>